<svg data-v-423bf9ae="" xmlns="http://www.w3.org/2000/svg" viewBox="0 0 720.4050339194177 60" class="font"><!----><!----><!----><g data-v-423bf9ae="" id="6eb426c2-924f-4627-bc5d-7ede565a8a52" fill="white" transform="matrix(5.063290976245382,0,0,5.063290976245382,-3.189865230954126,-39.18987195091823)"><path d="M4.23 7.90L4.23 7.90Q5.17 7.90 6.01 8.32L6.01 8.32L6.01 8.32Q6.85 8.75 7.42 9.53L7.42 9.53L6.33 10.88L6.33 10.88Q5.98 9.90 5.29 9.25L5.29 9.25L5.29 9.25Q4.59 8.61 3.64 8.61L3.64 8.61L3.64 8.61Q2.73 8.61 2.23 9.13L2.23 9.13L2.23 9.13Q1.72 9.65 1.72 10.46L1.72 10.46L1.72 10.46Q1.72 11.21 2.09 11.72L2.09 11.72L2.09 11.72Q2.45 12.22 2.97 12.53L2.97 12.53L2.97 12.53Q3.49 12.84 4.37 13.23L4.37 13.23L4.37 13.23Q5.21 13.61 5.69 13.89L5.69 13.89L5.69 13.89Q6.17 14.17 6.51 14.62L6.51 14.62L6.51 14.62Q6.85 15.06 6.85 15.72L6.85 15.72L6.85 15.72Q6.86 16.94 6.06 17.60L6.06 17.60L6.06 17.60Q5.26 18.26 3.99 18.26L3.99 18.26L3.99 18.26Q3.05 18.26 2.21 17.89L2.21 17.89L2.21 17.89Q1.36 17.51 0.85 16.76L0.85 16.76L1.95 15.54L1.95 15.54Q2.42 16.66 3.11 17.13L3.11 17.13L3.11 17.13Q3.79 17.60 4.44 17.60L4.44 17.60L4.44 17.60Q5.04 17.60 5.47 17.27L5.47 17.27L5.47 17.27Q5.89 16.94 5.89 16.41L5.89 16.41L5.89 16.41Q5.89 15.92 5.59 15.55L5.59 15.55L5.59 15.55Q5.29 15.18 4.84 14.92L4.84 14.92L4.84 14.92Q4.40 14.66 3.63 14.31L3.63 14.31L3.63 14.31Q2.65 13.86 2.06 13.50L2.06 13.50L2.06 13.50Q1.47 13.13 1.05 12.54L1.05 12.54L1.05 12.54Q0.63 11.94 0.63 11.09L0.63 11.09L0.63 11.09Q0.63 10.19 1.10 9.46L1.10 9.46L1.10 9.46Q1.57 8.72 2.39 8.31L2.39 8.31L2.39 8.31Q3.22 7.90 4.23 7.90L4.23 7.90ZM14.83 8.11L14.83 16.59L14.83 16.59Q14.83 16.98 14.99 17.22L14.99 17.22L14.99 17.22Q15.15 17.46 15.44 17.46L15.44 17.46L15.44 17.46Q15.67 17.46 15.90 17.31L15.90 17.31L15.90 17.31Q16.14 17.16 16.28 16.95L16.28 16.95L16.46 17.14L16.46 17.14Q16.30 17.56 15.88 17.86L15.88 17.86L15.88 17.86Q15.47 18.16 14.92 18.16L14.92 18.16L14.92 18.16Q14.31 18.16 13.92 17.72L13.92 17.72L13.92 17.72Q13.52 17.28 13.52 16.45L13.52 16.45L13.52 15.47L13.52 15.47Q13.22 16.62 12.49 17.42L12.49 17.42L12.49 17.42Q11.76 18.21 10.61 18.21L10.61 18.21L10.61 18.21Q9.77 18.21 9.34 17.65L9.34 17.65L9.34 17.65Q8.90 17.08 8.90 16.21L8.90 16.21L8.90 8.57L10.21 8.11L10.21 15.65L10.21 15.65Q10.21 16.21 10.25 16.55L10.25 16.55L10.25 16.55Q10.29 16.90 10.51 17.18L10.51 17.18L10.51 17.18Q10.72 17.46 11.20 17.46L11.20 17.46L11.20 17.46Q12.00 17.46 12.52 16.65L12.52 16.65L12.52 16.65Q13.03 15.85 13.28 14.78L13.28 14.78L13.28 14.78Q13.52 13.71 13.52 12.94L13.52 12.94L13.52 8.58L14.83 8.11ZM20.99 12.80L20.99 12.80Q21.78 12.64 22.30 12.64L22.30 12.64L22.30 12.64Q23.49 12.64 24.32 13.22L24.32 13.22L24.32 13.22Q25.16 13.80 25.16 14.94L25.16 14.94L25.16 14.94Q25.16 16.24 24.18 17.17L24.18 17.17L24.18 17.17Q23.21 18.10 21.81 18.58L21.81 18.58L21.81 18.58Q20.41 19.05 19.14 19.08L19.14 19.08L19.05 18.75L19.05 18.75Q20.86 18.37 22.26 17.45L22.26 17.45L22.26 17.45Q23.66 16.53 23.66 15.04L23.66 15.04L23.66 15.04Q23.66 14.49 23.32 14.06L23.32 14.06L23.32 14.06Q22.99 13.62 22.46 13.38L22.46 13.38L22.46 13.38Q21.94 13.15 21.36 13.15L21.36 13.15L21.36 13.15Q20.38 13.15 19.45 13.50L19.45 13.50L19.33 13.12L19.33 13.12Q20.55 12.60 21.50 11.76L21.50 11.76L21.50 11.76Q22.46 10.92 22.46 9.90L22.46 9.90L22.46 9.90Q22.46 9.37 22.13 9.04L22.13 9.04L22.13 9.04Q21.80 8.72 21.22 8.72L21.22 8.72L21.22 8.72Q20.40 8.72 19.89 9.33L19.89 9.33L19.89 9.33Q19.39 9.94 19.18 10.77L19.18 10.77L19.18 10.77Q18.97 11.61 18.97 12.36L18.97 12.36L18.97 17.72L17.67 18.20L17.67 13.13L17.67 13.13Q17.67 11.63 18.26 10.47L18.26 10.47L18.26 10.47Q18.86 9.31 19.92 8.66L19.92 8.66L19.92 8.66Q20.99 8.01 22.34 8.01L22.34 8.01L22.34 8.01Q23.02 8.01 23.48 8.36L23.48 8.36L23.48 8.36Q23.94 8.71 23.94 9.35L23.94 9.35L23.94 9.35Q23.94 10.28 23.01 11.21L23.01 11.21L23.01 11.21Q22.08 12.14 20.96 12.74L20.96 12.74L20.99 12.80ZM34.85 7.87L34.85 7.87Q35.74 7.87 36.29 8.37L36.29 8.37L36.29 8.37Q36.83 8.88 36.83 9.69L36.83 9.69L36.83 9.69Q36.83 10.33 36.49 11.02L36.49 11.02L36.49 11.02Q36.15 11.70 35.59 12.22L35.59 12.22L35.59 12.22Q35.03 12.74 34.41 12.92L34.41 12.92L34.27 12.67L34.27 12.67Q34.87 12.40 35.25 11.82L35.25 11.82L35.25 11.82Q35.62 11.23 35.62 10.57L35.62 10.57L35.62 10.57Q35.62 9.73 35.11 9.22L35.11 9.22L35.11 9.22Q34.61 8.71 33.77 8.71L33.77 8.71L33.77 8.71Q32.93 8.71 32.19 9.31L32.19 9.31L32.19 9.31Q31.44 9.91 31.00 10.91L31.00 10.91L31.00 10.91Q30.55 11.91 30.55 13.05L30.55 13.05L30.55 13.05Q30.55 14.28 30.93 15.22L30.93 15.22L30.93 15.22Q31.30 16.16 32.00 16.67L32.00 16.67L32.00 16.67Q32.69 17.18 33.59 17.18L33.59 17.18L33.59 17.18Q34.26 17.18 34.90 16.89L34.90 16.89L34.90 16.89Q35.55 16.60 36.08 16.06L36.08 16.06L36.39 16.37L36.39 16.37Q34.90 18.24 32.87 18.24L32.87 18.24L32.87 18.24Q31.74 18.24 30.91 17.68L30.91 17.68L30.91 17.68Q30.09 17.12 29.65 16.16L29.65 16.16L29.65 16.16Q29.20 15.20 29.20 14.03L29.20 14.03L29.20 14.03Q29.20 12.31 29.97 10.90L29.97 10.90L29.97 10.90Q30.73 9.49 32.03 8.68L32.03 8.68L32.03 8.68Q33.33 7.87 34.85 7.87L34.85 7.87ZM42.39 7.97L42.39 7.97Q43.72 7.97 44.74 8.71L44.74 8.71L44.74 8.71Q45.75 9.45 46.30 10.65L46.30 10.65L46.30 10.65Q46.86 11.86 46.86 13.17L46.86 13.17L46.86 13.17Q46.86 14.48 46.36 15.66L46.36 15.66L46.36 15.66Q45.86 16.84 44.86 17.58L44.86 17.58L44.86 17.58Q43.85 18.33 42.39 18.33L42.39 18.33L42.39 18.33Q41.05 18.33 40.01 17.58L40.01 17.58L40.01 17.58Q38.98 16.84 38.42 15.65L38.42 15.65L38.42 15.65Q37.87 14.46 37.87 13.17L37.87 13.17L37.87 13.17Q37.87 11.84 38.37 10.65L38.37 10.65L38.37 10.65Q38.86 9.46 39.89 8.72L39.89 8.72L39.89 8.72Q40.91 7.97 42.39 7.97L42.39 7.97ZM41.75 8.74L41.75 8.74Q40.85 8.74 40.26 9.26L40.26 9.26L40.26 9.26Q39.68 9.79 39.41 10.58L39.41 10.58L39.41 10.58Q39.14 11.37 39.14 12.15L39.14 12.15L39.14 12.15Q39.14 13.37 39.54 14.60L39.54 14.60L39.54 14.60Q39.94 15.82 40.80 16.65L40.80 16.65L40.80 16.65Q41.66 17.49 42.97 17.49L42.97 17.49L42.97 17.49Q43.86 17.49 44.44 16.95L44.44 16.95L44.44 16.95Q45.02 16.42 45.29 15.64L45.29 15.64L45.29 15.64Q45.56 14.85 45.56 14.06L45.56 14.06L45.56 14.06Q45.56 12.87 45.16 11.63L45.16 11.63L45.16 11.63Q44.77 10.40 43.91 9.57L43.91 9.57L43.91 9.57Q43.05 8.74 41.75 8.74L41.75 8.74ZM48.68 8.37L49.98 7.87L49.98 11.52L49.98 11.52Q50.27 10.36 50.79 9.54L50.79 9.54L50.79 9.54Q51.31 8.72 51.91 8.31L51.91 8.31L51.91 8.31Q52.51 7.90 53.03 7.90L53.03 7.90L53.03 7.90Q53.56 7.90 53.83 8.26L53.83 8.26L53.83 8.26Q54.10 8.62 54.10 9.23L54.10 9.23L54.10 11.51L54.10 11.51Q54.39 10.35 54.91 9.53L54.91 9.53L54.91 9.53Q55.43 8.72 56.02 8.31L56.02 8.31L56.02 8.31Q56.62 7.90 57.15 7.90L57.15 7.90L57.15 7.90Q57.68 7.90 57.95 8.25L57.95 8.25L57.95 8.25Q58.21 8.61 58.21 9.23L58.21 9.23L58.21 16.59L58.21 16.59Q58.21 16.98 58.38 17.22L58.38 17.22L58.38 17.22Q58.55 17.46 58.84 17.46L58.84 17.46L58.84 17.46Q59.07 17.46 59.30 17.31L59.30 17.31L59.30 17.31Q59.53 17.16 59.68 16.95L59.68 16.95L59.88 17.14L59.88 17.14Q59.68 17.57 59.28 17.86L59.28 17.86L59.28 17.86Q58.88 18.16 58.34 18.16L58.34 18.16L58.34 18.16Q57.71 18.16 57.32 17.72L57.32 17.72L57.32 17.72Q56.92 17.28 56.92 16.44L56.92 16.44L56.92 9.59L56.92 9.59Q56.92 9.27 56.80 9.09L56.80 9.09L56.80 9.09Q56.67 8.92 56.46 8.92L56.46 8.92L56.46 8.92Q56.03 8.92 55.46 9.59L55.46 9.59L55.46 9.59Q54.89 10.26 54.49 11.44L54.49 11.44L54.49 11.44Q54.08 12.61 54.08 14.06L54.08 14.06L54.08 17.82L52.79 18.28L52.79 9.59L52.79 9.59Q52.79 9.27 52.68 9.09L52.68 9.09L52.68 9.09Q52.57 8.92 52.37 8.92L52.37 8.92L52.37 8.92Q51.94 8.92 51.37 9.59L51.37 9.59L51.37 9.59Q50.79 10.26 50.39 11.44L50.39 11.44L50.39 11.44Q49.98 12.61 49.98 14.06L49.98 14.06L49.98 17.82L48.68 18.28L48.68 8.37ZM65.20 8.08L65.20 8.08Q66.53 8.08 67.38 8.80L67.38 8.80L67.38 8.80Q68.22 9.52 68.22 10.96L68.22 10.96L68.22 10.96Q68.22 12.11 67.45 13.10L67.45 13.10L67.45 13.10Q66.68 14.08 65.48 14.67L65.48 14.67L65.48 14.67Q64.29 15.26 63.08 15.26L63.08 15.26L63.08 15.26Q62.96 15.26 62.93 15.23L62.93 15.23L63.00 14.85L63.00 14.85Q63.94 14.76 64.83 14.27L64.83 14.27L64.83 14.27Q65.73 13.78 66.30 12.99L66.30 12.99L66.30 12.99Q66.86 12.19 66.86 11.23L66.86 11.23L66.86 11.23Q66.86 10.18 66.23 9.55L66.23 9.55L66.23 9.55Q65.59 8.92 64.34 8.92L64.34 8.92L64.34 8.92Q63.38 8.92 62.31 9.37L62.31 9.37L62.31 9.37Q61.24 9.83 60.44 10.56L60.44 10.56L60.17 10.26L60.17 10.26Q61.19 9.31 62.56 8.69L62.56 8.69L62.56 8.69Q63.92 8.08 65.20 8.08L65.20 8.08ZM62.36 10.11L62.36 17.78L61.07 18.27L61.07 10.61L62.36 10.11ZM75.53 8.11L75.53 16.59L75.53 16.59Q75.53 16.98 75.69 17.22L75.69 17.22L75.69 17.22Q75.85 17.46 76.15 17.46L76.15 17.46L76.15 17.46Q76.37 17.46 76.61 17.31L76.61 17.31L76.61 17.31Q76.85 17.16 76.99 16.95L76.99 16.95L77.17 17.14L77.17 17.14Q77 17.56 76.59 17.86L76.59 17.86L76.59 17.86Q76.17 18.16 75.63 18.16L75.63 18.16L75.63 18.16Q75.01 18.16 74.62 17.72L74.62 17.72L74.62 17.72Q74.23 17.28 74.23 16.45L74.23 16.45L74.23 15.47L74.23 15.47Q73.92 16.62 73.19 17.42L73.19 17.42L73.19 17.42Q72.46 18.21 71.32 18.21L71.32 18.21L71.32 18.21Q70.48 18.21 70.04 17.65L70.04 17.65L70.04 17.65Q69.61 17.08 69.61 16.21L69.61 16.21L69.61 8.57L70.91 8.11L70.91 15.65L70.91 15.65Q70.91 16.21 70.95 16.55L70.95 16.55L70.95 16.55Q70.99 16.90 71.21 17.18L71.21 17.18L71.21 17.18Q71.43 17.46 71.90 17.46L71.90 17.46L71.90 17.46Q72.70 17.46 73.22 16.65L73.22 16.65L73.22 16.65Q73.74 15.85 73.98 14.78L73.98 14.78L73.98 14.78Q74.23 13.71 74.23 12.94L74.23 12.94L74.23 8.58L75.53 8.11ZM84.49 7.74L84.64 7.90L84.64 7.90Q84.10 8.61 83.29 9.07L83.29 9.07L83.29 9.07Q82.47 9.52 81.61 9.52L81.61 9.52L81.61 9.52Q81.33 9.87 81.20 10.18L81.20 10.18L81.20 10.18Q81.07 10.49 81.07 10.91L81.07 10.91L81.07 15.47L81.07 15.47Q81.07 16.56 80.74 17.19L80.74 17.19L80.74 17.19Q80.40 17.81 79.66 18.38L79.66 18.38L79.37 18.10L79.37 18.10Q79.58 17.86 79.68 17.49L79.68 17.49L79.68 17.49Q79.79 17.11 79.79 16.73L79.79 16.73L79.79 11.72L79.79 11.72Q79.79 11.09 80.12 10.51L80.12 10.51L80.12 10.51Q80.46 9.94 80.98 9.52L80.98 9.52L79.04 9.51L79.04 9.51Q78.51 9.51 78.13 9.70L78.13 9.70L78.13 9.70Q77.76 9.88 77.39 10.29L77.39 10.29L77.13 10.08L77.13 10.08Q77.83 9.23 78.60 8.76L78.60 8.76L78.60 8.76Q79.38 8.30 80.19 8.30L80.19 8.30L81.35 8.30L81.35 8.30Q82.36 8.30 83.23 8.20L83.23 8.20L83.23 8.20Q84.10 8.09 84.49 7.74L84.49 7.74ZM86.67 7.87L86.67 17.82L85.37 18.28L85.37 8.36L86.67 7.87ZM89.38 8.34L90.66 7.85L90.66 10.57L90.66 10.57Q90.97 9.39 91.69 8.63L91.69 8.63L91.69 8.63Q92.41 7.87 93.60 7.87L93.60 7.87L93.60 7.87Q94.44 7.87 94.88 8.44L94.88 8.44L94.88 8.44Q95.31 9.02 95.31 9.87L95.31 9.87L95.31 16.59L95.31 16.59Q95.31 16.98 95.47 17.22L95.47 17.22L95.47 17.22Q95.63 17.46 95.93 17.46L95.93 17.46L95.93 17.46Q96.17 17.46 96.40 17.31L96.40 17.31L96.40 17.31Q96.64 17.16 96.77 16.95L96.77 16.95L96.96 17.14L96.96 17.14Q96.78 17.56 96.38 17.86L96.38 17.86L96.38 17.86Q95.97 18.16 95.44 18.16L95.44 18.16L95.44 18.16Q94.79 18.16 94.40 17.72L94.40 17.72L94.40 17.72Q94.01 17.28 94.01 16.44L94.01 16.44L94.01 10.43L94.01 10.43Q94.01 9.65 93.84 9.13L93.84 9.13L93.84 9.13Q93.66 8.61 93.03 8.61L93.03 8.61L93.03 8.61Q92.23 8.61 91.70 9.40L91.70 9.40L91.70 9.40Q91.17 10.19 90.92 11.26L90.92 11.26L90.92 11.26Q90.66 12.32 90.66 13.09L90.66 13.09L90.66 17.75L89.38 18.27L89.38 8.34ZM102.98 7.92L102.98 7.92Q103.82 7.92 104.36 8.29L104.36 8.29L104.36 8.29Q104.89 8.65 104.89 9.24L104.89 9.24L104.89 9.24Q104.89 9.81 104.43 10.39L104.43 10.39L104.43 10.39Q103.98 10.96 103.26 11.35L103.26 11.35L103.26 11.35Q102.54 11.75 101.78 11.80L101.78 11.80L101.64 11.54L101.64 11.54Q102.38 11.35 102.90 10.82L102.90 10.82L102.90 10.82Q103.42 10.28 103.42 9.70L103.42 9.70L103.42 9.70Q103.42 9.24 103.10 8.97L103.10 8.97L103.10 8.97Q102.77 8.69 102.24 8.69L102.24 8.69L102.24 8.69Q101.29 8.69 100.53 9.32L100.53 9.32L100.53 9.32Q99.78 9.94 99.35 11.03L99.35 11.03L99.35 11.03Q98.92 12.12 98.92 13.50L98.92 13.50L98.92 13.50Q98.92 15.18 99.48 16.13L99.48 16.13L99.48 16.13Q100.04 17.08 101.16 17.08L101.16 17.08L101.16 17.08Q101.81 17.08 102.40 16.62L102.40 16.62L102.40 16.62Q103.00 16.16 103.38 15.42L103.38 15.42L103.38 15.42Q103.75 14.69 103.77 13.90L103.77 13.90L105.10 13.44L105.10 19.08L103.87 19.59L103.87 15.30L103.78 15.30L103.78 15.30Q103.57 16.18 103.09 16.84L103.09 16.84L103.09 16.84Q102.61 17.50 101.96 17.85L101.96 17.85L101.96 17.85Q101.30 18.20 100.60 18.20L100.60 18.20L100.60 18.20Q99.65 18.20 98.94 17.75L98.94 17.75L98.94 17.75Q98.22 17.29 97.84 16.45L97.84 16.45L97.84 16.45Q97.45 15.61 97.45 14.49L97.45 14.49L97.45 14.49Q97.45 12.66 98.18 11.15L98.18 11.15L98.18 11.15Q98.91 9.65 100.18 8.79L100.18 8.79L100.18 8.79Q101.44 7.92 102.98 7.92L102.98 7.92ZM115.33 7.87L115.33 7.87Q116.23 7.87 116.77 8.37L116.77 8.37L116.77 8.37Q117.32 8.88 117.32 9.69L117.32 9.69L117.32 9.69Q117.32 10.33 116.98 11.02L116.98 11.02L116.98 11.02Q116.63 11.70 116.07 12.22L116.07 12.22L116.07 12.22Q115.51 12.74 114.90 12.92L114.90 12.92L114.76 12.67L114.76 12.67Q115.36 12.40 115.73 11.82L115.73 11.82L115.73 11.82Q116.10 11.23 116.10 10.57L116.10 10.57L116.10 10.57Q116.10 9.73 115.60 9.22L115.60 9.22L115.60 9.22Q115.09 8.71 114.25 8.71L114.25 8.71L114.25 8.71Q113.41 8.71 112.67 9.31L112.67 9.31L112.67 9.31Q111.93 9.91 111.48 10.91L111.48 10.91L111.48 10.91Q111.03 11.91 111.03 13.05L111.03 13.05L111.03 13.05Q111.03 14.28 111.41 15.22L111.41 15.22L111.41 15.22Q111.79 16.16 112.48 16.67L112.48 16.67L112.48 16.67Q113.18 17.18 114.07 17.18L114.07 17.18L114.07 17.18Q114.74 17.18 115.39 16.89L115.39 16.89L115.39 16.89Q116.03 16.60 116.56 16.06L116.56 16.06L116.87 16.37L116.87 16.37Q115.39 18.24 113.36 18.24L113.36 18.24L113.36 18.24Q112.22 18.24 111.40 17.68L111.40 17.68L111.40 17.68Q110.57 17.12 110.13 16.16L110.13 16.16L110.13 16.16Q109.69 15.20 109.69 14.03L109.69 14.03L109.69 14.03Q109.69 12.31 110.45 10.90L110.45 10.90L110.45 10.90Q111.22 9.49 112.52 8.68L112.52 8.68L112.52 8.68Q113.82 7.87 115.33 7.87L115.33 7.87ZM123.16 7.87L123.16 7.87Q123.91 7.87 124.38 8.23L124.38 8.23L124.38 8.23Q124.85 8.60 124.85 9.23L124.85 9.23L124.85 9.23Q124.85 9.79 124.41 10.35L124.41 10.35L124.41 10.35Q123.97 10.91 123.26 11.30L123.26 11.30L123.26 11.30Q122.56 11.69 121.80 11.79L121.80 11.79L121.67 11.52L121.67 11.52Q122.43 11.28 122.93 10.74L122.93 10.74L122.93 10.74Q123.44 10.19 123.44 9.59L123.44 9.59L123.44 9.59Q123.44 9.14 123.15 8.90L123.15 8.90L123.15 8.90Q122.86 8.65 122.39 8.65L122.39 8.65L122.39 8.65Q121.24 8.65 120.68 9.44L120.68 9.44L120.68 9.44Q120.12 10.23 120.12 11.33L120.12 11.33L120.12 15.67L120.12 15.67Q120.12 16.10 119.99 16.41L119.99 16.41L119.99 16.41Q119.85 16.73 119.57 17.07L119.57 17.07L119.64 17.11L119.64 17.11Q119.98 16.86 120.29 16.73L120.29 16.73L120.29 16.73Q120.60 16.60 121.00 16.60L121.00 16.60L121.00 16.60Q121.56 16.60 122.18 16.70L122.18 16.70L122.18 16.70Q122.26 16.72 122.61 16.76L122.61 16.76L122.61 16.76Q122.96 16.80 123.37 16.80L123.37 16.80L123.37 16.80Q123.84 16.80 124.26 16.55L124.26 16.55L124.26 16.55Q124.68 16.30 124.98 15.90L124.98 15.90L125.23 16.07L124.19 18.24L124.19 18.24Q123.54 18.17 122.68 17.98L122.68 17.98L122.68 17.98Q121.83 17.81 121.29 17.73L121.29 17.73L121.29 17.73Q120.75 17.65 120.12 17.65L120.12 17.65L120.12 17.65Q119.71 17.65 119.25 17.79L119.25 17.79L119.25 17.79Q118.79 17.93 118.44 18.20L118.44 18.20L118.12 17.93L118.12 17.93Q118.82 17.39 118.82 16.42L118.82 16.42L118.82 12.47L118.82 12.47Q118.82 11.19 119.36 10.14L119.36 10.14L119.36 10.14Q119.91 9.09 120.90 8.48L120.90 8.48L120.90 8.48Q121.88 7.87 123.16 7.87L123.16 7.87ZM132.58 8.11L132.58 16.59L132.58 16.59Q132.58 16.98 132.74 17.22L132.74 17.22L132.74 17.22Q132.90 17.46 133.20 17.46L133.20 17.46L133.20 17.46Q133.42 17.46 133.66 17.31L133.66 17.31L133.66 17.31Q133.90 17.16 134.04 16.95L134.04 16.95L134.22 17.14L134.22 17.14Q134.05 17.56 133.64 17.86L133.64 17.86L133.64 17.86Q133.22 18.16 132.68 18.16L132.68 18.16L132.68 18.16Q132.06 18.16 131.67 17.72L131.67 17.72L131.67 17.72Q131.28 17.28 131.28 16.45L131.28 16.45L131.28 15.47L131.28 15.47Q130.97 16.62 130.24 17.42L130.24 17.42L130.24 17.42Q129.51 18.21 128.37 18.21L128.37 18.21L128.37 18.21Q127.53 18.21 127.09 17.65L127.09 17.65L127.09 17.65Q126.66 17.08 126.66 16.21L126.66 16.21L126.66 8.57L127.96 8.11L127.96 15.65L127.96 15.65Q127.96 16.21 128.00 16.55L128.00 16.55L128.00 16.55Q128.04 16.90 128.26 17.18L128.26 17.18L128.26 17.18Q128.48 17.46 128.95 17.46L128.95 17.46L128.95 17.46Q129.75 17.46 130.27 16.65L130.27 16.65L130.27 16.65Q130.79 15.85 131.03 14.78L131.03 14.78L131.03 14.78Q131.28 13.71 131.28 12.94L131.28 12.94L131.28 8.58L132.58 8.11ZM138.74 12.80L138.74 12.80Q139.54 12.64 140.06 12.64L140.06 12.64L140.06 12.64Q141.25 12.64 142.08 13.22L142.08 13.22L142.08 13.22Q142.91 13.80 142.91 14.94L142.91 14.94L142.91 14.94Q142.91 16.24 141.94 17.17L141.94 17.17L141.94 17.17Q140.97 18.10 139.57 18.58L139.57 18.58L139.57 18.58Q138.17 19.05 136.89 19.08L136.89 19.08L136.81 18.75L136.81 18.75Q138.61 18.37 140.01 17.45L140.01 17.45L140.01 17.45Q141.41 16.53 141.41 15.04L141.41 15.04L141.41 15.04Q141.41 14.49 141.08 14.06L141.08 14.06L141.08 14.06Q140.74 13.62 140.22 13.38L140.22 13.38L140.22 13.38Q139.69 13.15 139.12 13.15L139.12 13.15L139.12 13.15Q138.14 13.15 137.20 13.50L137.20 13.50L137.09 13.12L137.09 13.12Q138.31 12.60 139.26 11.76L139.26 11.76L139.26 11.76Q140.21 10.92 140.21 9.90L140.21 9.90L140.21 9.90Q140.21 9.37 139.88 9.04L139.88 9.04L139.88 9.04Q139.55 8.72 138.98 8.72L138.98 8.72L138.98 8.72Q138.15 8.72 137.65 9.33L137.65 9.33L137.65 9.33Q137.14 9.94 136.93 10.77L136.93 10.77L136.93 10.77Q136.72 11.61 136.72 12.36L136.72 12.36L136.72 17.72L135.42 18.20L135.42 13.13L135.42 13.13Q135.42 11.63 136.02 10.47L136.02 10.47L136.02 10.47Q136.61 9.31 137.68 8.66L137.68 8.66L137.68 8.66Q138.74 8.01 140.10 8.01L140.10 8.01L140.10 8.01Q140.77 8.01 141.23 8.36L141.23 8.36L141.23 8.36Q141.69 8.71 141.69 9.35L141.69 9.35L141.69 9.35Q141.69 10.28 140.76 11.21L140.76 11.21L140.76 11.21Q139.83 12.14 138.71 12.74L138.71 12.74L138.74 12.80Z"></path></g><!----><!----></svg>